<?xml version="1.0" encoding="utf-8"?>
<svg version="1.1" xmlns="http://www.w3.org/2000/svg" x="0px" y="0px" viewBox="0 0 256 256" enable-background="new 0 0 256 256" xml:space="preserve">
<g><g><g><path fill="#000000" d="M86.4,10.3c-14.3,2.8-25,13-28.4,26.9c-0.9,3.8-0.8,12.3,0.2,16.3c0.8,2.9,3.9,10,5.3,11.8c0.4,0.6-0.2,1.8-3.1,6.2C51.3,85.2,47.1,98.1,47.1,112c0.1,11.5,2.4,19.8,9.4,33.5l4.3,8.3v4.5c-0.1,5.4-1.2,8.9-4.2,12.2c-1,1.2-10.9,9.1-21.9,17.6c-11,8.4-20.6,16.1-21.3,17c-2.3,2.7-3.4,5.7-3.4,9.5c-0.1,5.9,1.1,7.8,12.2,18.9c11.2,11.3,13.3,12.7,19.3,12.6c3.8,0,6.8-1,9.5-3.4c0.9-0.7,8.4-10.3,16.9-21.2c8.4-11,16.2-20.7,17.3-21.8c1.2-1,3.4-2.5,4.9-3.2c2.3-1.1,3.5-1.3,7.5-1.3l4.8,0l8.3,4.2c4.5,2.4,10,4.9,12,5.6c29.8,10.7,59-0.1,88.6-32.8c11.6-12.7,17.9-21.7,23.7-33.4c8.7-17.6,12.4-36.4,10.6-53.4c-2.3-20.7-10.8-37.9-26-52.5c-11.5-11.1-25.8-18.6-41.1-21.7c-18.2-3.7-39.3-1.1-57,7.1l-3.5,1.6l-2.5-2.2c-2.9-2.6-10.1-6.3-14.3-7.3C96.9,9.8,90.5,9.5,86.4,10.3z M99.3,18.2c7.5,1.9,14.7,7.6,17.9,14.1c5.6,11.2,3.7,23.6-5,32.3c-11,11-28.1,11-39,0C67.6,59.1,65,52.8,65,45.1c0-4.6,0.7-7.9,2.8-12.3C71,26,78.4,20,85.8,18.2C89.4,17.4,95.8,17.4,99.3,18.2z M175.3,18.7c14.2,2.6,28.2,9.7,38.9,20c16,15.2,24,33.9,24,55.8c-0.1,22.8-8.7,44.7-26.1,65.4c-17.6,21.2-36.1,35-52.6,39.7l-3.5,0.9l-49.9-49.9c-34.9-34.9-50-50.3-50-51c0-1.7,2.4-8.5,4.7-13.3c2.2-4.6,8.1-14.1,8.7-14.1c0.2,0,1.3,0.7,2.5,1.6c5.3,4.1,13,6.5,20.6,6.5c6.4,0,10-0.9,16.2-3.9c3.8-1.9,5.3-3,8.7-6.4c3.4-3.4,4.5-4.9,6.4-8.7c3-6.2,3.9-9.9,3.9-16.2c0-6-0.8-9.9-3.3-15.1l-1.7-3.5l4-1.7c7.8-3.3,15-5.3,23.5-6.6C156.3,17.4,169.2,17.6,175.3,18.7z M100.5,156l45.6,45.7l-4.9-0.2c-8.8-0.5-18.5-3.7-27.9-9c-2.7-1.5-6.3-3.2-7.9-3.7c-3.6-1.1-10.3-1.3-14-0.4c-3.8,0.9-8.5,3.4-11.4,6c-1.4,1.3-9.5,11.3-18,22.4c-9,11.6-16,20.4-16.9,21c-1.9,1.1-4.8,1.2-7,0.2c-2.1-1-19.3-18.4-20-20.1c-0.9-2.3-0.6-5,0.5-6.8c0.6-0.9,9.9-8.4,20.6-16.6c10.7-8.2,20.7-16.2,22.1-17.7c4.6-4.9,7-11,7-18c0-5.8-1-9.1-4.6-15.8c-5.7-10.2-8.4-18.7-9-27.8c-0.2-2.6-0.2-4.8-0.1-4.8C54.8,110.3,75.4,130.8,100.5,156z"/><path fill="#000000" d="M86.9,26.1c-5.7,1.8-9.8,5.3-12.2,10.6c-1.3,2.7-1.6,4.1-1.7,7.3c-0.2,3.8-0.1,4,1.1,5.1c2.9,2.2,6.2,0.4,6.2-3.6c0-3.4,1.3-6.5,3.7-8.9c2.1-2.1,5.5-3.8,7.9-3.8c1.9,0,3.4-1.6,3.4-3.7C95.3,25.7,91.9,24.5,86.9,26.1z"/></g></g></g>
</svg>